<svg width="49" height="48" viewBox="0 0 49 48" fill="none" xmlns="http://www.w3.org/2000/svg">
<rect x="0.921204" y="0.366211" width="47.236" height="47.236" fill="#081133"/>
<path d="M30.5705 19.5562C32.1665 18.7162 33.1745 17.2042 33.1745 15.2442C33.1745 12.1922 30.6545 10.1482 25.7545 10.1482L16.1785 10.1482L16.1785 29.7482L26.3145 29.7482C31.4665 29.7482 34.1545 27.7882 34.1545 24.4002C34.1545 21.9362 32.7545 20.2562 30.5705 19.5562ZM25.1945 13.5642C27.4065 13.5642 28.6105 14.3202 28.6105 15.8602C28.6105 17.4002 27.4065 18.1842 25.1945 18.1842H20.6865V13.5642H25.1945ZM25.9785 26.3322L20.6865 26.3322V21.4882L25.9785 21.4882C28.3305 21.4882 29.5905 22.2722 29.5905 23.9242C29.5905 25.6042 28.3305 26.3322 25.9785 26.3322Z" fill="white"/>
<path d="M21.2439 38.2537L21.2369 33.3537H20.4879L18.5769 36.6017L16.6309 33.3537H15.8819V38.2537H16.7499V35.0477L18.3599 37.6937H18.7659L20.3759 35.0057L20.3829 38.2537H21.2439ZM26.0115 33.3537V35.3767H23.4775V33.3537H22.5675V38.2537H23.4775V36.1537H26.0115V38.2537H26.9215V33.3537H26.0115ZM30.5025 38.3237C31.3075 38.3237 31.9935 38.0367 32.4485 37.5047L31.8605 36.9447C31.5035 37.3367 31.0625 37.5257 30.5515 37.5257C29.5365 37.5257 28.8015 36.8117 28.8015 35.8037C28.8015 34.7957 29.5365 34.0817 30.5515 34.0817C31.0625 34.0817 31.5035 34.2707 31.8605 34.6557L32.4485 34.1027C31.9935 33.5707 31.3075 33.2837 30.5095 33.2837C29.0045 33.2837 27.8845 34.3407 27.8845 35.8037C27.8845 37.2667 29.0045 38.3237 30.5025 38.3237ZM33.3204 38.2537H34.2304V33.3537H33.3204V38.2537Z" fill="white" fill-opacity="0.9"/>
</svg>
