<svg width="17" height="17" viewBox="0 0 17 17" fill="none" xmlns="http://www.w3.org/2000/svg">
<path d="M16.7256 8.73389V13.8767C16.7256 14.6345 16.4246 15.3612 15.8887 15.897C15.3529 16.4329 14.6262 16.7339 13.8684 16.7339H3.58273C2.82497 16.7339 2.09824 16.4329 1.56242 15.897C1.02661 15.3612 0.725586 14.6345 0.725586 13.8767V3.59104C0.725586 2.83328 1.02661 2.10655 1.56242 1.57073C2.09824 1.03492 2.82497 0.733896 3.58273 0.733896H8.72558C8.87713 0.733896 9.02248 0.7941 9.12964 0.901264C9.23681 1.00843 9.29701 1.15377 9.29701 1.30532C9.29701 1.45688 9.23681 1.60222 9.12964 1.70939C9.02248 1.81655 8.87713 1.87675 8.72558 1.87675H3.58273C3.12807 1.87675 2.69204 2.05736 2.37054 2.37886C2.04905 2.70035 1.86844 3.13638 1.86844 3.59104V13.8767C1.86844 14.3314 2.04905 14.7674 2.37054 15.0889C2.69204 15.4104 3.12807 15.591 3.58273 15.591H13.8684C14.3231 15.591 14.7591 15.4104 15.0806 15.0889C15.4021 14.7674 15.5827 14.3314 15.5827 13.8767V8.73389C15.5827 8.58234 15.6429 8.43699 15.7501 8.32983C15.8573 8.22267 16.0026 8.16246 16.1541 8.16246C16.3057 8.16246 16.451 8.22267 16.5582 8.32983C16.6654 8.43699 16.7256 8.58234 16.7256 8.73389ZM12.1542 1.87675H14.777L8.31987 8.32818C8.26631 8.3813 8.2238 8.4445 8.19479 8.51413C8.16578 8.58377 8.15084 8.65846 8.15084 8.73389C8.15084 8.80933 8.16578 8.88402 8.19479 8.95365C8.2238 9.02328 8.26631 9.08648 8.31987 9.13961C8.37299 9.19316 8.43619 9.23568 8.50582 9.26469C8.57546 9.2937 8.65015 9.30863 8.72558 9.30863C8.80102 9.30863 8.87571 9.2937 8.94534 9.26469C9.01497 9.23568 9.07817 9.19316 9.1313 9.13961L15.5827 2.68818V5.30532C15.5827 5.45687 15.6429 5.60222 15.7501 5.70938C15.8573 5.81655 16.0026 5.87675 16.1541 5.87675C16.3057 5.87675 16.451 5.81655 16.5582 5.70938C16.6654 5.60222 16.7256 5.45687 16.7256 5.30532V1.30532C16.726 1.23012 16.7116 1.15557 16.6832 1.08595C16.6547 1.01633 16.6128 0.953005 16.5599 0.89961C16.5065 0.84665 16.4431 0.80475 16.3735 0.776313C16.3039 0.747876 16.2294 0.733461 16.1541 0.733896H12.1542C12.0026 0.733896 11.8573 0.7941 11.7501 0.901264C11.6429 1.00843 11.5827 1.15377 11.5827 1.30532C11.5827 1.45688 11.6429 1.60222 11.7501 1.70939C11.8573 1.81655 12.0026 1.87675 12.1542 1.87675Z" fill="white"/>
</svg>
